REM DIRINDEX 1\2,1\3,1\4,1\5,1\6,1\7,1\8
REM DIRNAME folder01,folder02,folder03,folder04,folder05,folder06,folder07,folder08
TITLE ""
FILE "010 でる文50.mp3" MP3
  TRACK 01 AUDIO
    TITLE "0:"
    INDEX 01 00:00:00
  TRACK 02 AUDIO
    TITLE "8:cjc150_2356"
    INDEX 01 00:00:01
  TRACK 03 AUDIO
    TITLE "0:"
    INDEX 01 00:01:36
  TRACK 04 AUDIO
    TITLE "2:cjc150_2357"
    INDEX 01 00:02:12
  TRACK 05 AUDIO
    TITLE "0:"
    INDEX 01 00:08:19
  TRACK 06 AUDIO
    TITLE "8:cjc150_2358"
    INDEX 01 00:09:49
  TRACK 07 AUDIO
    TITLE "0:"
    INDEX 01 00:12:28
  TRACK 08 AUDIO
    TITLE "3:cjc150_2359"
    INDEX 01 00:13:14
  TRACK 09 AUDIO
    TITLE "3:cjc150_2360"
    INDEX 01 00:15:11
  TRACK 10 AUDIO
    TITLE "3:cjc150_2361"
    INDEX 01 00:16:73
  TRACK 11 AUDIO
    TITLE "3:cjc150_2362"
    INDEX 01 00:18:46
  TRACK 12 AUDIO
    TITLE "3:cjc150_2363"
    INDEX 01 00:20:18
  TRACK 13 AUDIO
    TITLE "3:cjc150_2364"
    INDEX 01 00:22:05
  TRACK 14 AUDIO
    TITLE "3:cjc150_2365"
    INDEX 01 00:23:61
  TRACK 15 AUDIO
    TITLE "3:cjc150_2366"
    INDEX 01 00:25:33
  TRACK 16 AUDIO
    TITLE "3:cjc150_2367"
    INDEX 01 00:27:10
  TRACK 17 AUDIO
    TITLE "3:cjc150_2368"
    INDEX 01 00:28:55
  TRACK 18 AUDIO
    TITLE "8:cjc150_2369"
    INDEX 01 00:30:28
  TRACK 19 AUDIO
    TITLE "0:"
    INDEX 01 00:33:05
  TRACK 20 AUDIO
    TITLE "4:cjc150_2370"
    INDEX 01 00:33:64
  TRACK 21 AUDIO
    TITLE "4:cjc150_2371"
    INDEX 01 00:36:56
  TRACK 22 AUDIO
    TITLE "4:cjc150_2372"
    INDEX 01 00:40:11
  TRACK 23 AUDIO
    TITLE "4:cjc150_2373"
    INDEX 01 00:42:61
  TRACK 24 AUDIO
    TITLE "4:cjc150_2374"
    INDEX 01 00:46:00
  TRACK 25 AUDIO
    TITLE "4:cjc150_2375"
    INDEX 01 00:47:50
  TRACK 26 AUDIO
    TITLE "8:cjc150_2376"
    INDEX 01 00:49:63
  TRACK 27 AUDIO
    TITLE "0:"
    INDEX 01 00:52:55
  TRACK 28 AUDIO
    TITLE "5:cjc150_2377"
    INDEX 01 00:53:45
  TRACK 29 AUDIO
    TITLE "5:cjc150_2378"
    INDEX 01 00:55:46
  TRACK 30 AUDIO
    TITLE "5:cjc150_2379"
    INDEX 01 00:58:30
  TRACK 31 AUDIO
    TITLE "5:cjc150_2380"
    INDEX 01 01:00:27
  TRACK 32 AUDIO
    TITLE "5:cjc150_2381"
    INDEX 01 01:02:18
  TRACK 33 AUDIO
    TITLE "5:cjc150_2382"
    INDEX 01 01:04:00
  TRACK 34 AUDIO
    TITLE "5:cjc150_2383"
    INDEX 01 01:06:32
  TRACK 35 AUDIO
    TITLE "5:cjc150_2384"
    INDEX 01 01:08:05
  TRACK 36 AUDIO
    TITLE "5:cjc150_2385"
    INDEX 01 01:09:50
  TRACK 37 AUDIO
    TITLE "5:cjc150_2386"
    INDEX 01 01:12:21
  TRACK 38 AUDIO
    TITLE "5:cjc150_2387"
    INDEX 01 01:14:74
  TRACK 39 AUDIO
    TITLE "5:cjc150_2388"
    INDEX 01 01:16:60
  TRACK 40 AUDIO
    TITLE "5:cjc150_2389"
    INDEX 01 01:18:43
  TRACK 41 AUDIO
    TITLE "5:cjc150_2390"
    INDEX 01 01:20:16
  TRACK 42 AUDIO
    TITLE "5:cjc150_2391"
    INDEX 01 01:22:60
  TRACK 43 AUDIO
    TITLE "5:cjc150_2392"
    INDEX 01 01:24:36
  TRACK 44 AUDIO
    TITLE "5:cjc150_2393"
    INDEX 01 01:26:01
  TRACK 45 AUDIO
    TITLE "5:cjc150_2394"
    INDEX 01 01:27:67
  TRACK 46 AUDIO
    TITLE "5:cjc150_2395"
    INDEX 01 01:30:32
  TRACK 47 AUDIO
    TITLE "5:cjc150_2396"
    INDEX 01 01:32:06
  TRACK 48 AUDIO
    TITLE "8:cjc150_2397"
    INDEX 01 01:33:54
  TRACK 49 AUDIO
    TITLE "0:"
    INDEX 01 01:36:33
  TRACK 50 AUDIO
    TITLE "6:cjc150_2398"
    INDEX 01 01:37:17
  TRACK 51 AUDIO
    TITLE "6:cjc150_2399"
    INDEX 01 01:40:19
  TRACK 52 AUDIO
    TITLE "6:cjc150_2400"
    INDEX 01 01:44:05
  TRACK 53 AUDIO
    TITLE "6:cjc150_2401"
    INDEX 01 01:46:74
  TRACK 54 AUDIO
    TITLE "6:cjc150_2402"
    INDEX 01 01:49:59
  TRACK 55 AUDIO
    TITLE "6:cjc150_2403"
    INDEX 01 01:52:51
  TRACK 56 AUDIO
    TITLE "6:cjc150_2404"
    INDEX 01 01:55:22
  TRACK 57 AUDIO
    TITLE "6:cjc150_2405"
    INDEX 01 01:57:72
  TRACK 58 AUDIO
    TITLE "6:cjc150_2406"
    INDEX 01 02:00:39
  TRACK 59 AUDIO
    TITLE "6:cjc150_2407"
    INDEX 01 02:02:32
  TRACK 60 AUDIO
    TITLE "6:cjc150_2408"
    INDEX 01 02:04:04
  TRACK 61 AUDIO
    TITLE "6:cjc150_2409"
    INDEX 01 02:05:52
  TRACK 62 AUDIO
    TITLE "8:cjc150_2410"
    INDEX 01 02:06:54
  TRACK 63 AUDIO
    TITLE "0:"
    INDEX 01 02:08:33
  TRACK 64 AUDIO
    TITLE "7:cjc150_2411"
    INDEX 01 02:09:15
  TRACK 65 AUDIO
    TITLE "7:cjc150_2412"
    INDEX 01 02:15:21
  TRACK 66 AUDIO
    TITLE "0:"
    INDEX 01 02:21:14
